<?xml version='1.0' encoding='UTF-8'?>
<svg xmlns="http://www.w3.org/2000/svg" width="1200" height="720" viewBox="0 0 1200 720">
  <defs>
    <linearGradient id="bg" x1="0" y1="0" x2="1" y2="1">
      <stop offset="0%" stop-color="#05070d"/>
      <stop offset="100%" stop-color="#0d1117"/>
    </linearGradient>
    <linearGradient id="accent" x1="0" y1="0" x2="1" y2="1">
      <stop offset="0%" stop-color="#58a6ff"/>
      <stop offset="100%" stop-color="#9b5cff"/>
    </linearGradient>
    <style>
      .mono { font-family: Consolas, Menlo, Monaco, "SFMono-Regular", monospace; }
      .title { font-size: 34px; font-weight: 700; fill: #e6edf3; }
      .sub { font-size: 14px; fill: #9fb0c3; }
      .label { font-size: 11px; letter-spacing: 0.16em; fill: #8b949e; }
      .body { font-size: 13px; fill: #c9d1d9; }
      .small { font-size: 12px; fill: #c9d1d9; }
      .panel { fill: rgba(255,255,255,0.03); stroke: rgba(255,255,255,0.08); stroke-width: 1; }
      .chip { fill: rgba(88,166,255,0.08); stroke: rgba(88,166,255,0.22); stroke-width: 1; }
      .chip2 { fill: rgba(155,92,255,0.10); stroke: rgba(155,92,255,0.22); stroke-width: 1; }
      .line { stroke: rgba(255,255,255,0.05); stroke-width: 1; }
      .key { fill: #ffa657; }
      .value { fill: #e6edf3; }
      .dots { fill: #7d8590; }
    </style>
  </defs>

  <rect width="1200" height="720" rx="24" fill="url(#bg)"/>
  <rect x="24" y="24" width="1152" height="672" rx="20" class="panel"/>

  <rect x="24" y="24" width="1152" height="44" rx="20" fill="rgba(255,255,255,0.02)"/>
  <circle cx="52" cy="46" r="6" fill="#ff5f56"/>
  <circle cx="74" cy="46" r="6" fill="#ffbd2e"/>
  <circle cx="96" cy="46" r="6" fill="#27c93f"/>
  <text x="132" y="50" class="mono small" fill="#7d8590">ayush@deo:~/profile$</text>

  <text x="56" y="104" class="mono title">Ayush Deo</text>
  <text x="56" y="130" class="mono sub">Software Engineer · MS CS @ USC · Distributed Systems · Agentic AI · LLM Eval</text>
  <line x1="56" y1="150" x2="1144" y2="150" class="line"/>

  <!-- LEFT COLUMN -->
  <g transform="translate(56,176)">
    <rect x="0" y="0" width="324" height="470" rx="18" class="chip"/>

    <text x="20" y="30" class="mono label">PROFILE</text>
    <text x="20" y="60" class="mono body">Software engineer building</text>
    <text x="20" y="82" class="mono body">production systems: distributed</text>
    <text x="20" y="104" class="mono body">pipelines, cloud, agentic AI.</text>

    <line x1="20" y1="132" x2="304" y2="132" class="line"/>

    <text x="20" y="166" class="mono label">HIGHLIGHTS</text>

    <text x="20" y="196" class="mono body">
      <tspan class="key">&gt;</tspan> Fraud triage 40% faster
    </text>

    <text x="20" y="218" class="mono body">
      <tspan class="key">&gt;</tspan> Bank reports 2wk -&gt; 10min
    </text>

    <text x="20" y="240" class="mono body">
      <tspan class="key">&gt;</tspan> Zero-data-loss PG migration
    </text>

    <text x="20" y="262" class="mono body">
      <tspan class="key">&gt;</tspan> Prod Docker platform, 150 users
    </text>

    <text x="20" y="284" class="mono body">
      <tspan class="key">&gt;</tspan> 6 peer-reviewed publications
    </text>

    <text x="20" y="306" class="mono body">
      <tspan class="key">&gt;</tspan> 1st, Crowe National Case Comp
    </text>

    <line x1="20" y1="334" x2="304" y2="334" class="line"/>
    
    <text x="20" y="368" class="mono label">CONTACT</text>
    <text x="20" y="398" class="mono body">theayushdeo@gmail.com</text>
    <text x="20" y="422" class="mono body">linkedin.com/in/ayushdeo</text>
    <text x="20" y="446" class="mono body">github.com/ayushdeo</text>
  </g>

  <!-- RIGHT SIDE -->
  <g transform="translate(404,176)">
    <rect x="0" y="0" width="720" height="120" rx="18" class="chip2"/>
    <text x="18" y="30" class="mono label">SUMMARY</text>
    <text x="18" y="58" class="mono body">MS CS @ USC. I build and ship production systems — distributed data pipelines, cloud</text>
    <text x="18" y="82" class="mono body">deployments, and multi-agent AI — with a focus on correctness, clean migrations, and</text>
    <text x="18" y="106" class="mono body">measurable impact. 6 peer-reviewed publications in NLP and computer vision.</text>

    <rect x="0" y="146" width="350" height="132" rx="18" class="chip"/>
    <text x="18" y="176" class="mono label">EDUCATION</text>
    <text x="18" y="204" class="mono body">University of Southern California</text>
    <text x="18" y="226" class="mono small">M.S. Computer Science · 2025–2027</text>
    <text x="18" y="252" class="mono body">NMIMS Mukesh Patel School of Technology</text>
    <text x="18" y="274" class="mono small">B.Tech. Information Technology · CGPA 3.62/4.0</text>

    <rect x="370" y="146" width="350" height="132" rx="18" class="chip"/>
    <text x="388" y="176" class="mono label">RESEARCH</text>
    <text x="388" y="204" class="mono body">6 published papers</text>
    <text x="388" y="226" class="mono small">Vision-language captioning</text>
    <text x="388" y="248" class="mono small">GPT-4o-mini bias analysis</text>
    <text x="388" y="270" class="mono small">LLM evaluation and multimodal systems</text>

    <rect x="0" y="298" width="350" height="132" rx="18" class="chip2"/>
    <text x="18" y="328" class="mono label">EXPERIENCE</text>
    <text x="18" y="356" class="mono body">USC Dornsife · SWE, Research Assistant</text>
    <text x="18" y="378" class="mono small">Zero-loss PG migration · 864 tasks · Docker/Azure</text>
    <text x="18" y="404" class="mono body">TCS · SWE Intern, Cloud.AI Division</text>
    <text x="18" y="426" class="mono small">40% faster fraud triage · multi-agent RAG</text>

    <rect x="370" y="298" width="350" height="132" rx="18" class="chip2"/>
    <text x="388" y="328" class="mono label">STACK</text>
    <text x="388" y="356" class="mono body">Python | Java | C++ | TypeScript | SQL</text>
    <text x="388" y="380" class="mono body">Distributed systems | PostgreSQL | Docker</text>
    <text x="388" y="404" class="mono body">Azure | AWS | GCP | CI/CD | React</text>
    <text x="388" y="426" class="mono body">Agentic AI | RAG | LLM eval | PyTorch</text>

  </g>
</svg>