<svg width="1200" height="720" viewBox="0 0 1200 720" xmlns="http://www.w3.org/2000/svg">
  <defs>
    <linearGradient id="bg" x1="0" y1="0" x2="1" y2="1">
      <stop offset="0%" stop-color="#05070d"/>
      <stop offset="100%" stop-color="#0d1117"/>
    </linearGradient>
    <linearGradient id="accent" x1="0" y1="0" x2="1" y2="1">
      <stop offset="0%" stop-color="#58a6ff"/>
      <stop offset="100%" stop-color="#9b5cff"/>
    </linearGradient>
    <style>
      .mono { font-family: Consolas, Menlo, Monaco, "SFMono-Regular", monospace; }
      .title { font-size: 34px; font-weight: 700; fill: #e6edf3; }
      .sub { font-size: 14px; fill: #9fb0c3; }
      .label { font-size: 11px; letter-spacing: 0.16em; fill: #8b949e; }
      .body { font-size: 13px; fill: #c9d1d9; }
      .small { font-size: 12px; fill: #c9d1d9; }
      .chip { fill: rgba(88,166,255,0.08); stroke: rgba(88,166,255,0.22); stroke-width: 1; }
      .chip2 { fill: rgba(155,92,255,0.10); stroke: rgba(155,92,255,0.22); stroke-width: 1; }
      .panel { fill: rgba(255,255,255,0.03); stroke: rgba(255,255,255,0.08); stroke-width: 1; }
      .line { stroke: rgba(255,255,255,0.05); stroke-width: 1; }
      .accentText { fill: #58a6ff; }
      .accentText2 { fill: #ffa657; }
    </style>
  </defs>

  <rect width="1200" height="720" rx="24" fill="url(#bg)"/>
  <rect x="24" y="24" width="1152" height="672" rx="20" class="panel"/>

  <rect x="24" y="24" width="1152" height="44" rx="20" fill="rgba(255,255,255,0.02)"/>
  <circle cx="52" cy="46" r="6" fill="#ff5f56"/>
  <circle cx="74" cy="46" r="6" fill="#ffbd2e"/>
  <circle cx="96" cy="46" r="6" fill="#27c93f"/>
  <text x="132" y="50" class="mono small" fill="#7d8590">ayush@deo:~/profile$</text>

  <text x="56" y="104" class="mono title">Ayush Deo</text>
  <text x="56" y="130" class="mono sub">AI Researcher | Agentic Systems | LLMs | Gene Sequencing AI | Graphic Design</text>
  <line x1="56" y1="150" x2="1144" y2="150" class="line"/>

  <g transform="translate(56,176)">
    <rect x="0" y="0" width="324" height="470" rx="18" class="chip"/>
    <text x="20" y="30" class="mono label">PROFILE</text>
    <text x="20" y="62" class="mono body">Research-first builder focused on</text>
    <text x="20" y="82" class="mono body">LLM evaluation, agentic workflows,</text>
    <text x="20" y="102" class="mono body">and Spatial Transcriptomnics-oriented AI.</text>

    <line x1="20" y1="130" x2="304" y2="130" class="line"/>

    <text x="20" y="164" class="mono label">HIGHLIGHTS</text>
    <text x="20" y="194" class="mono body">• USC M.S. Computer Science</text>
    <text x="20" y="218" class="mono body">• 6 published papers</text>
    <text x="20" y="242" class="mono body">• TCS AI/ML intern</text>
    <text x="20" y="266" class="mono body">• BelleVidCo co-founder</text>
    <text x="20" y="290" class="mono body">• Strong design eye</text>

    <line x1="20" y1="322" x2="304" y2="322" class="line"/>

    <text x="20" y="356" class="mono label">CONTACT</text>
    <text x="20" y="386" class="mono body">theayushdeo@gmail.com</text>
    <text x="20" y="410" class="mono body">linkedin.com/in/ayushdeo</text>
    <text x="20" y="434" class="mono body">github.com/ayushdeo</text>
  </g>

  <g transform="translate(404,176)">
    <rect x="0" y="0" width="720" height="120" rx="18" class="chip2"/>
    <text x="18" y="30" class="mono label">SUMMARY</text>
    <text x="18" y="58" class="mono body">MS CS at USC. Building systems at the intersection of LLMs, agents, and applied research.</text>
    <text x="18" y="82" class="mono body">I care about useful automation, clean interfaces, and technical work that reads well on a page.</text>
    <text x="18" y="106" class="mono body">Current direction: evaluation, multimodal AI, and gene sequencing intelligence.</text>

    <rect x="0" y="146" width="350" height="132" rx="18" class="chip"/>
    <text x="18" y="176" class="mono label">EDUCATION</text>
    <text x="18" y="204" class="mono body">University of Southern California</text>
    <text x="18" y="226" class="mono small">M.S. Computer Science · 2025–2027</text>
    <text x="18" y="252" class="mono body">NMIMS Mukesh Patel School of Technology</text>
    <text x="18" y="274" class="mono small">B.Tech. Information Technology · CGPA 3.62/4.0</text>

    <rect x="370" y="146" width="350" height="132" rx="18" class="chip"/>
    <text x="388" y="176" class="mono label">RESEARCH</text>
    <text x="388" y="204" class="mono body">6 published papers</text>
    <text x="388" y="226" class="mono small">Vision-language captioning</text>
    <text x="388" y="248" class="mono small">GPT-4o-mini bias analysis</text>
    <text x="388" y="270" class="mono small">LLM evaluation and multimodal systems</text>

    <rect x="0" y="298" width="350" height="132" rx="18" class="chip2"/>
    <text x="18" y="328" class="mono label">EXPERIENCE</text>
    <text x="18" y="356" class="mono body">TCS · AI/ML Intern, Cloud.AI Division</text>
    <text x="18" y="378" class="mono small">7-agent automation, hybrid reasoning, RAG pipelines</text>
    <text x="18" y="404" class="mono body">Bellevidco · Co-Founder</text>
    <text x="18" y="426" class="mono small">Data-driven consultancy with analytics systems</text>

    <rect x="370" y="298" width="350" height="132" rx="18" class="chip2"/>
    <text x="388" y="328" class="mono label">STACK</text>
    <text x="388" y="356" class="mono body">Python | SQL | TypeScript | C++</text>
    <text x="388" y="380" class="mono body">PyTorch | Hugging Face | Azure AI</text>
    <text x="388" y="404" class="mono body">AutoGen | Docker | React | NLP | RAG</text>

  </g>
</svg>
